<?xml version="1.0" encoding="UTF-8" standalone="no"?>
<!-- Created with Inkscape (http://www.inkscape.org/) -->

<svg
   width="79.364594mm"
   height="79.364594mm"
   viewBox="0 0 79.364593 79.364593"
   version="1.1"
   id="svg1"
   sodipodi:docname="Søttruphus_logo.svg"
   inkscape:version="1.3.2 (091e20e, 2023-11-25, custom)"
   inkscape:export-filename="Søttruphus_logo.svg"
   inkscape:export-xdpi="96"
   inkscape:export-ydpi="96"
   xmlns:inkscape="http://www.inkscape.org/namespaces/inkscape"
   xmlns:sodipodi="http://sodipodi.sourceforge.net/DTD/sodipodi-0.dtd"
   xmlns="http://www.w3.org/2000/svg"
   xmlns:svg="http://www.w3.org/2000/svg">
  <sodipodi:namedview
     id="namedview1"
     pagecolor="#ffffff"
     bordercolor="#000000"
     borderopacity="0.25"
     inkscape:showpageshadow="2"
     inkscape:pageopacity="0.0"
     inkscape:pagecheckerboard="0"
     inkscape:deskcolor="#d1d1d1"
     inkscape:document-units="mm"
     inkscape:zoom="0.60721585"
     inkscape:cx="537.70006"
     inkscape:cy="374.66084"
     inkscape:window-width="1920"
     inkscape:window-height="1009"
     inkscape:window-x="-8"
     inkscape:window-y="-8"
     inkscape:window-maximized="1"
     inkscape:current-layer="g2" />
  <defs
     id="defs1" />
  <g
     id="layer1"
     transform="matrix(0.83322406,0,0,0.83322406,-47.38141,-42.796613)">
    <circle
       style="fill:#ffffff;fill-opacity:1;stroke:none;stroke-width:0.238613;stroke-linecap:round;stroke-linejoin:round"
       id="path1"
       cx="104.67324"
       cy="92.775436"
       r="39.682297"
       transform="matrix(1.2001574,0,0,1.2001574,-21.13421,-12.357454)" />
    <g
       id="g2">
      <text
         xml:space="preserve"
         style="font-size:17.0108px;fill:#000000;fill-opacity:1;stroke:none;stroke-width:0.311148;stroke-linecap:round;stroke-linejoin:round"
         x="57.617332"
         y="106.25488"
         id="text1"><tspan
           id="tspan1"
           style="font-style:normal;font-variant:normal;font-weight:normal;font-stretch:normal;font-size:17.0108px;font-family:Poppins;-inkscape-font-specification:Poppins;fill:#000000;fill-opacity:1;stroke:none;stroke-width:0.311148"
           x="57.617332"
           y="106.25488">Søttruphus</tspan></text>
      <text
         xml:space="preserve"
         style="font-style:normal;font-variant:normal;font-weight:normal;font-stretch:normal;font-size:4.86803px;font-family:Roboto;-inkscape-font-specification:Roboto;fill:#f27405;fill-opacity:1;stroke:none;stroke-width:0.330319;stroke-linecap:round;stroke-linejoin:round"
         x="113.72013"
         y="117.54386"
         id="text2"
         transform="scale(1.0616157,0.94196044)"><tspan
           id="tspan2"
           style="font-style:normal;font-variant:normal;font-weight:normal;font-stretch:normal;font-size:4.86803px;font-family:Roboto;-inkscape-font-specification:Roboto;fill:#f27405;fill-opacity:1;stroke:none;stroke-width:0.330319"
           x="113.72013"
           y="117.54386">Et trygt hjem</tspan></text>
    </g>
    <g
       id="g1"
       transform="matrix(0.43836023,0,0,0.43836023,57.926749,51.217179)">
      <path
         id="path2"
         style="fill:none;fill-opacity:1;stroke:#000000;stroke-width:1.27314;stroke-linecap:round;stroke-linejoin:round;stroke-dasharray:none;stroke-opacity:1"
         d="M 68.457648,70.979376 108.62928,50.710272 152.06682,73.750054 V 61.695835 l 13.30817,0.07247 -0.0788,16.299649 25.92722,14.540906" />
      <path
         id="path20"
         style="fill:none;fill-opacity:1;stroke:#000000;stroke-width:1.27314;stroke-linecap:round;stroke-linejoin:round;stroke-dasharray:none;stroke-opacity:1"
         d="M 25.589824,92.608866 42.787125,83.93176" />
    </g>
    <g
       id="g3"
       transform="matrix(0.43836023,0,0,0.43836023,57.926749,51.217179)">
      <path
         style="fill:none;fill-opacity:1;stroke:#f27405;stroke-width:0.555979;stroke-linecap:round;stroke-linejoin:round;stroke-dasharray:none;stroke-opacity:1"
         d="m 61.069437,96.935946 c 0,0 -5.430259,-27.576764 -18.266685,-38.742799"
         id="path3" />
      <path
         style="fill:none;fill-opacity:1;stroke:#f27405;stroke-width:0.555979;stroke-linecap:round;stroke-linejoin:round;stroke-dasharray:none;stroke-opacity:1"
         d="m 59.801165,91.612446 c 0,0 1.216323,-6.767994 6.941881,-6.003639 0.405107,6.00856 -6.941881,6.003639 -6.941881,6.003639 z"
         id="path4" />
      <path
         style="fill:none;fill-opacity:1;stroke:#f27405;stroke-width:0.555979;stroke-linecap:round;stroke-linejoin:round;stroke-dasharray:none;stroke-opacity:1"
         d="m 58.256321,86.256966 c 0,0 0.350494,-6.180098 4.950887,-5.949029 0.349056,2.168681 -0.391863,3.556031 -1.399081,4.439407 -1.48606,1.303349 -3.551806,1.509622 -3.551806,1.509622 z"
         id="path5" />
      <path
         style="fill:none;fill-opacity:1;stroke:#f27405;stroke-width:0.555979;stroke-linecap:round;stroke-linejoin:round;stroke-dasharray:none;stroke-opacity:1"
         d="m 56.483999,80.395855 c 0,0 -0.886911,-6.270474 4.567568,-7.377115 2.143532,5.107215 -4.567568,7.377115 -4.567568,7.377115 z"
         id="path6" />
      <path
         style="fill:none;fill-opacity:1;stroke:#f27405;stroke-width:0.555979;stroke-linecap:round;stroke-linejoin:round;stroke-dasharray:none;stroke-opacity:1"
         d="m 53.709473,74.170955 c 0,0 0.451112,-6.422383 5.03676,-6.070327 0.773854,5.60719 -5.03676,6.070327 -5.03676,6.070327 z"
         id="path7" />
      <path
         style="fill:none;fill-opacity:1;stroke:#f27405;stroke-width:0.555979;stroke-linecap:round;stroke-linejoin:round;stroke-dasharray:none;stroke-opacity:1"
         d="m 51.41394,69.409706 c 0,0 0.180582,-5.478105 4.127791,-5.333289 0.844582,4.743391 -4.127791,5.333289 -4.127791,5.333289 z"
         id="path8" />
      <path
         style="fill:none;fill-opacity:1;stroke:#f27405;stroke-width:0.555979;stroke-linecap:round;stroke-linejoin:round;stroke-dasharray:none;stroke-opacity:1"
         d="m 48.580766,64.624879 c 0,0 0.271154,-6.020782 4.556614,-5.795446 0.852441,5.230043 -4.556614,5.795446 -4.556614,5.795446 z"
         id="path9" />
      <path
         style="fill:none;fill-opacity:1;stroke:#f27405;stroke-width:0.555979;stroke-linecap:round;stroke-linejoin:round;stroke-dasharray:none;stroke-opacity:1"
         d="m 46.059943,61.291672 c 0,0 0.17354,-5.624289 3.748339,-5.359823 0.756314,4.899292 -3.748339,5.359823 -3.748339,5.359823 z"
         id="path10" />
      <path
         style="fill:none;fill-opacity:1;stroke:#f27405;stroke-width:0.555979;stroke-linecap:round;stroke-linejoin:round;stroke-dasharray:none;stroke-opacity:1"
         d="m 42.985012,58.335436 c 0,0 -0.447124,-4.954866 2.597574,-5.059312 1.155316,4.230702 -2.597574,5.059312 -2.597574,5.059312 z"
         id="path11" />
      <path
         style="fill:none;fill-opacity:1;stroke:#f27405;stroke-width:0.555979;stroke-linecap:round;stroke-linejoin:round;stroke-dasharray:none;stroke-opacity:1"
         d="m 59.505057,90.391817 c 0,0 -6.182672,3.959216 -9.717113,-1.114007 4.416869,-4.686636 9.717113,1.114007 9.717113,1.114007 z"
         id="path12" />
      <path
         style="fill:none;fill-opacity:1;stroke:#f27405;stroke-width:0.555979;stroke-linecap:round;stroke-linejoin:round;stroke-dasharray:none;stroke-opacity:1"
         d="m 57.737591,85.220923 c 0,0 -5.777749,3.058652 -8.555541,-1.70284 4.260608,-3.833939 8.555541,1.70284 8.555541,1.70284 z"
         id="path13" />
      <path
         style="fill:none;fill-opacity:1;stroke:#f27405;stroke-width:0.555979;stroke-linecap:round;stroke-linejoin:round;stroke-dasharray:none;stroke-opacity:1"
         d="m 55.357089,79.324384 c 0,0 -5.619411,3.124939 -8.338536,-1.690721 4.139428,-3.90461 8.338536,1.690721 8.338536,1.690721 z"
         id="path14" />
      <path
         style="fill:none;fill-opacity:1;stroke:#f27405;stroke-width:0.555979;stroke-linecap:round;stroke-linejoin:round;stroke-dasharray:none;stroke-opacity:1"
         d="m 53.510758,73.640788 c 0,0 -3.771841,3.453763 -6.679582,-0.828485 2.504249,-4.052029 6.679582,0.828485 6.679582,0.828485 z"
         id="path15" />
      <path
         style="fill:none;fill-opacity:1;stroke:#f27405;stroke-width:0.555979;stroke-linecap:round;stroke-linejoin:round;stroke-dasharray:none;stroke-opacity:1"
         d="m 51.37283,68.964116 c 0,0 -5.026886,3.285958 -7.998478,-0.660256 3.56639,-3.822741 7.998478,0.660256 7.998478,0.660256 z"
         id="path16" />
      <path
         style="fill:none;fill-opacity:1;stroke:#f27405;stroke-width:0.555979;stroke-linecap:round;stroke-linejoin:round;stroke-dasharray:none;stroke-opacity:1"
         d="m 48.29033,65.195729 c 0,0 -4.546387,2.750471 -6.91952,-1.150248 3.305131,-3.351138 6.91952,1.150248 6.91952,1.150248 z"
         id="path17" />
      <path
         style="fill:none;fill-opacity:1;stroke:#f27405;stroke-width:0.555979;stroke-linecap:round;stroke-linejoin:round;stroke-dasharray:none;stroke-opacity:1"
         d="m 45.369356,60.932837 c 0,0 -3.331174,2.821595 -5.800936,0.06527 2.236563,-3.122397 5.800936,-0.06527 5.800936,-0.06527 z"
         id="path18" />
      <path
         style="fill:none;fill-opacity:1;stroke:#f27405;stroke-width:0.555979;stroke-linecap:round;stroke-linejoin:round;stroke-dasharray:none;stroke-opacity:1"
         d="m 42.979038,58.39558 c 0,0 -4.123028,1.445939 -5.620536,-1.74003 3.163165,-2.049269 5.620536,1.74003 5.620536,1.74003 z"
         id="path19" />
    </g>
  </g>
</svg>
